<svg xmlns="http://www.w3.org/2000/svg" viewBox="0 0 100 100">
  <defs>
    <linearGradient id="gear-gradient" x1="0%" y1="0%" x2="100%" y2="100%">
      <stop offset="0%" style="stop-color:#3b82f6"/>
      <stop offset="100%" style="stop-color:#8b5cf6"/>
    </linearGradient>
  </defs>
  <path fill="url(#gear-gradient)" d="M50 20c-1.7 0-3.4.1-5 .4l-2.3-8.7c-.3-1.2-1.5-1.9-2.7-1.6l-9.5 2.5c-1.2.3-1.9 1.5-1.6 2.7l2.3 8.7c-2.8 1.7-5.3 3.8-7.4 6.3l-8.1-4.1c-1.1-.6-2.4-.1-3 1l-5 8.7c-.6 1.1-.1 2.4 1 3l8.1 4.1c-.9 3-.1 6.1-.1 9.1 0 1.7.1 3.4.4 5l-8.7 2.3c-1.2.3-1.9 1.5-1.6 2.7l2.5 9.5c.3 1.2 1.5 1.9 2.7 1.6l8.7-2.3c1.7 2.8 3.8 5.3 6.3 7.4l-4.1 8.1c-.6 1.1-.1 2.4 1 3l8.7 5c1.1.6 2.4.1 3-1l4.1-8.1c3 .9 6.1.1 9.1.1 1.7 0 3.4-.1 5-.4l2.3 8.7c.3 1.2 1.5 1.9 2.7 1.6l9.5-2.5c1.2-.3 1.9-1.5 1.6-2.7l-2.3-8.7c2.8-1.7 5.3-3.8 7.4-6.3l8.1 4.1c1.1.6 2.4.1 3-1l5-8.7c.6-1.1.1-2.4-1-3l-8.1-4.1c.9-3 .1-6.1.1-9.1 0-1.7-.1-3.4-.4-5l8.7-2.3c1.2-.3 1.9-1.5 1.6-2.7l-2.5-9.5c-.3-1.2-1.5-1.9-2.7-1.6l-8.7 2.3c-1.7-2.8-3.8-5.3-6.3-7.4l4.1-8.1c.6-1.1.1-2.4-1-3l-8.7-5c-1.1-.6-2.4-.1-3 1l-4.1 8.1c-3-.9-6.1-.1-9.1-.1zM50 35c8.3 0 15 6.7 15 15s-6.7 15-15 15-15-6.7-15-15 6.7-15 15-15z"/>
</svg>
